<svg width="310" height="72" viewBox="0 0 310 72" fill="none" xmlns="http://www.w3.org/2000/svg">
<g clip-path="url(#clip0_3174_4979)">
<path d="M85.7515 14.9674C84.7447 11.2054 81.7881 8.24909 78.0261 7.24207C71.2146 5.41504 43.8881 5.41504 43.8881 5.41504C43.8881 5.41504 16.5619 5.41504 9.75007 7.24207C5.98815 8.24909 3.03181 11.2054 2.02478 14.9674C0.197754 21.7792 0.197754 35.9998 0.197754 35.9998C0.197754 35.9998 0.197754 50.2205 2.02478 57.0323C3.03181 60.7942 5.98815 63.7505 9.75007 64.7574C16.5619 66.5845 43.8881 66.5845 43.8881 66.5845C43.8881 66.5845 71.2146 66.5845 78.0261 64.7574C81.7881 63.7505 84.7447 60.7942 85.7515 57.0323C87.5787 50.2205 87.5787 35.9998 87.5787 35.9998C87.5787 35.9998 87.5713 21.7792 85.7515 14.9674Z" fill="#FB651E"/>
<path fill-rule="evenodd" clip-rule="evenodd" d="M28.8434 44.0248C27.0845 38.8915 26.8759 34.0977 28.2175 29.6433C29.5592 25.1889 32.5216 22.1765 37.1049 20.6061C40.1757 19.5538 43.0479 19.4915 45.7215 20.4191C48.441 21.3309 50.7918 23.0349 52.7738 25.531C53.0799 19.9975 55.6621 16.3984 60.5203 14.7337C64.5077 13.3674 68.2506 13.903 71.7489 16.3405C75.2931 18.7622 77.8347 22.2189 79.3737 26.7105C80.9442 31.2937 81.0795 35.5749 79.7799 39.554C78.4959 43.5789 75.8831 46.2666 71.9415 47.6172C67.1749 49.2505 62.9052 47.9992 59.1322 43.8634C58.9751 50.7286 55.9174 55.1821 49.9592 57.2236C45.2843 58.8255 41.0439 58.3324 37.2379 55.7443C33.4319 53.1562 30.6337 49.2497 28.8434 44.0248ZM35.7183 41.6691C36.6448 44.3732 38.1549 46.314 40.2484 47.4916C42.342 48.6691 44.7179 48.8025 47.3762 47.8916C50.0344 46.9807 51.8064 45.4261 52.6919 43.2278C53.5775 41.0294 53.5649 38.6011 52.654 35.9428C51.7588 33.3304 50.2488 31.3896 48.1238 30.1203C46.0447 28.8354 43.676 28.6484 41.0177 29.5593C39.319 30.1413 37.976 30.9989 36.9889 32.1319C37.1745 32.116 37.3631 32.1148 37.5538 32.1292C39.7242 32.2932 41.333 34.4208 41.1471 36.8813C40.9611 39.3418 39.0509 41.2035 36.8805 41.0395C36.3447 40.999 35.8431 40.8389 35.3943 40.5836C35.4852 40.9423 35.5932 41.3041 35.7183 41.6691ZM58.6587 33.9622C59.4439 36.2538 60.7138 37.8672 62.4682 38.8025C64.2384 39.7835 66.2234 39.8972 68.4234 39.1433C70.4858 38.4366 71.9075 37.1301 72.6882 35.2237C73.5148 33.3017 73.5433 31.2177 72.7738 28.972C72.0043 26.7262 70.7266 25.0898 68.9408 24.0629C67.1549 23.036 65.1849 22.8916 63.0308 23.6297C62.6204 23.7703 62.2352 23.933 61.8753 24.1176C63.7572 24.417 65.2321 26.225 65.2859 28.4463C65.3455 30.9131 63.6299 32.9555 61.4539 33.0082C60.068 33.0417 58.8295 32.26 58.0975 31.0505C58.1321 32.0006 58.3191 32.9711 58.6587 33.9622Z" fill="white"/>
<path d="M102.015 56.2497V13.5243H130.804V20.9721H111.048V31.1527H129.323V38.6004H111.048V48.802H130.888V56.2497H102.015Z" fill="#FB651E"/>
<path d="M136.057 56.2497V24.2057H144.944V56.2497H136.057ZM140.521 20.075C139.2 20.075 138.066 19.6369 137.121 18.7607C136.189 17.8706 135.723 16.8066 135.723 15.5688C135.723 14.3449 136.189 13.2949 137.121 12.4187C138.066 11.5286 139.2 11.0835 140.521 11.0835C141.842 11.0835 142.969 11.5286 143.901 12.4187C144.846 13.2949 145.319 14.3449 145.319 15.5688C145.319 16.8066 144.846 17.8706 143.901 18.7607C142.969 19.6369 141.842 20.075 140.521 20.075Z" fill="#FB651E"/>
<path d="M164.737 68.9338C161.858 68.9338 159.389 68.5374 157.331 67.7446C155.287 66.9658 153.659 65.9018 152.449 64.5527C151.239 63.2037 150.454 61.6877 150.092 60.0048L158.312 58.8991C158.562 59.5389 158.958 60.137 159.501 60.6933C160.043 61.2496 160.759 61.6946 161.649 62.0284C162.553 62.3761 163.652 62.55 164.946 62.55C166.879 62.55 168.471 62.0771 169.723 61.1314C170.989 60.1995 171.621 58.6349 171.621 56.4374V50.5752H171.246C170.857 51.4653 170.272 52.3068 169.494 53.0995C168.715 53.8923 167.713 54.539 166.489 55.0397C165.266 55.5404 163.805 55.7907 162.108 55.7907C159.702 55.7907 157.512 55.2344 155.537 54.1218C153.576 52.9952 152.011 51.2776 150.843 48.9688C149.689 46.6462 149.111 43.7116 149.111 40.1651C149.111 36.5351 149.702 33.5032 150.885 31.0693C152.067 28.6354 153.638 26.8134 155.599 25.6034C157.574 24.3934 159.737 23.7884 162.088 23.7884C163.882 23.7884 165.384 24.0944 166.594 24.7064C167.804 25.3044 168.777 26.0554 169.514 26.9595C170.265 27.8496 170.843 28.7258 171.246 29.5881H171.58V24.2057H180.404V56.5626C180.404 59.2886 179.737 61.5695 178.402 63.4053C177.066 65.2412 175.217 66.6181 172.852 67.536C170.502 68.4678 167.797 68.9338 164.737 68.9338ZM164.925 49.1149C166.357 49.1149 167.567 48.7602 168.555 48.0509C169.556 47.3277 170.321 46.2985 170.85 44.9633C171.392 43.6143 171.663 42.0009 171.663 40.1234C171.663 38.2458 171.399 36.6186 170.87 35.2417C170.342 33.8509 169.577 32.773 168.576 32.0081C167.574 31.2431 166.357 30.8607 164.925 30.8607C163.464 30.8607 162.234 31.257 161.232 32.0498C160.231 32.8286 159.473 33.9135 158.958 35.3043C158.444 36.6951 158.186 38.3014 158.186 40.1234C158.186 41.9731 158.444 43.5725 158.958 44.9216C159.487 46.2568 160.245 47.2929 161.232 48.0301C162.234 48.7533 163.464 49.1149 164.925 49.1149Z" fill="#FB651E"/>
<path d="M194.601 37.7242V56.2497H185.714V13.5243H194.351V29.8593H194.727C195.45 27.9678 196.618 26.4866 198.231 25.4157C199.845 24.3309 201.868 23.7884 204.302 23.7884C206.527 23.7884 208.468 24.2752 210.123 25.2488C211.792 26.2084 213.085 27.5923 214.003 29.4003C214.935 31.1944 215.394 33.3432 215.38 35.8467V56.2497H206.493V37.4322C206.507 35.4572 206.006 33.9204 204.991 32.8217C203.989 31.7229 202.585 31.1736 200.777 31.1736C199.567 31.1736 198.496 31.4309 197.564 31.9455C196.646 32.4601 195.923 33.2111 195.394 34.1986C194.88 35.1721 194.615 36.3473 194.601 37.7242Z" fill="#FB651E"/>
<path d="M237.656 24.2057V30.8815H218.358V24.2057H237.656ZM222.739 16.5285H231.627V46.4028C231.627 47.2234 231.752 47.8632 232.002 48.3221C232.252 48.7672 232.6 49.0801 233.045 49.2609C233.504 49.4417 234.033 49.5321 234.631 49.5321C235.048 49.5321 235.465 49.4974 235.882 49.4278C236.3 49.3444 236.62 49.2818 236.842 49.2401L238.24 55.8533C237.795 55.9924 237.169 56.1523 236.362 56.3331C235.556 56.5278 234.575 56.6461 233.421 56.6878C231.279 56.7712 229.401 56.4861 227.788 55.8324C226.189 55.1788 224.944 54.1635 224.054 52.7866C223.164 51.4097 222.725 49.6712 222.739 47.5711V16.5285Z" fill="#FB651E"/>
<path d="M241.682 56.2497V24.2057H250.57V56.2497H241.682ZM246.147 20.075C244.826 20.075 243.692 19.6369 242.746 18.7607C241.815 17.8706 241.349 16.8066 241.349 15.5688C241.349 14.3449 241.815 13.2949 242.746 12.4187C243.692 11.5286 244.826 11.0835 246.147 11.0835C247.468 11.0835 248.595 11.5286 249.527 12.4187C250.472 13.2949 250.945 14.3449 250.945 15.5688C250.945 16.8066 250.472 17.8706 249.527 18.7607C248.595 19.6369 247.468 20.075 246.147 20.075Z" fill="#FB651E"/>
<path d="M273.158 24.2057V30.8815H253.381V24.2057H273.158ZM257.908 56.2497V21.89C257.908 19.5674 258.36 17.6411 259.264 16.1112C260.182 14.5814 261.434 13.4339 263.019 12.669C264.605 11.9041 266.406 11.5216 268.423 11.5216C269.786 11.5216 271.03 11.6259 272.157 11.8345C273.297 12.0431 274.146 12.2309 274.702 12.3978L273.117 19.0736C272.769 18.9624 272.338 18.8581 271.823 18.7607C271.323 18.6633 270.808 18.6147 270.279 18.6147C268.972 18.6147 268.061 18.9206 267.547 19.5326C267.032 20.1306 266.775 20.9721 266.775 22.0569V56.2497H257.908Z" fill="#FB651E"/>
<path d="M282.312 68.2662C281.185 68.2662 280.128 68.1758 279.141 67.995C278.167 67.8281 277.361 67.6125 276.721 67.3482L278.724 60.7141C279.767 61.034 280.706 61.2079 281.54 61.2357C282.388 61.2635 283.119 61.0688 283.731 60.6516C284.356 60.2343 284.864 59.525 285.254 58.5236L285.775 57.1676L274.28 24.2057H283.626L290.26 47.738H290.594L297.291 24.2057H306.7L294.245 59.7128C293.647 61.4374 292.833 62.9394 291.804 64.219C290.789 65.5124 289.502 66.5068 287.945 67.2022C286.387 67.9115 284.509 68.2662 282.312 68.2662Z" fill="#FB651E"/>
</g>
<defs>
<clipPath id="clip0_3174_4979">
<rect width="309.605" height="72" fill="white" transform="translate(0.197754)"/>
</clipPath>
</defs>
</svg>
